<?xml version="1.0" standalone="no"?>
<!DOCTYPE svg PUBLIC "-//W3C//DTD SVG 20010904//EN"
 "http://www.w3.org/TR/2001/REC-SVG-20010904/DTD/svg10.dtd">
<svg version="1.0" xmlns="http://www.w3.org/2000/svg"
 width="225.000000pt" height="225.000000pt" viewBox="0 0 225.000000 225.000000"
 preserveAspectRatio="xMidYMid meet">

<g transform="translate(0.000000,225.000000) scale(0.100000,-0.100000)"
fill="#000000" stroke="none">
<path d="M885 1694 c-383 -46 -685 -201 -796 -407 -32 -59 -34 -67 -34 -162 0
-95 2 -103 34 -162 89 -165 289 -292 571 -364 297 -76 633 -76 930 0 282 72
482 199 571 364 32 59 34 67 34 162 0 95 -2 103 -34 162 -44 81 -111 150 -204
211 -255 167 -679 244 -1072 196z m550 -98 c202 -37 377 -103 499 -190 287
-204 226 -472 -146 -645 -191 -90 -378 -125 -663 -125 -285 0 -472 35 -663
125 -425 198 -435 512 -24 718 119 60 296 109 472 130 108 14 418 6 525 -13z"/>
<path d="M961 1278 c-29 -139 -54 -261 -57 -270 -5 -16 2 -18 54 -18 l59 0 22
103 c11 56 24 117 27 135 l7 32 66 0 c41 0 74 -5 86 -14 18 -13 18 -17 -7
-135 l-26 -121 59 0 c66 0 58 -11 89 130 22 104 25 152 10 179 -16 32 -83 51
-174 51 l-84 0 14 68 c8 37 16 77 19 90 5 21 2 22 -53 22 l-59 0 -52 -252z"/>
<path d="M452 1112 c-23 -130 -43 -241 -42 -245 0 -4 26 -7 58 -5 l57 3 9 61
8 61 97 5 c156 8 215 45 247 154 26 90 -2 158 -76 188 -30 12 -75 16 -178 16
l-137 0 -43 -238z m309 127 c29 -29 21 -92 -15 -128 -23 -23 -36 -26 -105 -29
l-79 -4 14 78 c8 44 17 85 19 92 3 8 27 12 75 12 58 0 74 -4 91 -21z"/>
<path d="M1436 1323 c-3 -16 -22 -116 -41 -223 -19 -107 -38 -205 -40 -217 -5
-22 -2 -23 54 -23 l59 0 6 38 c17 99 5 89 115 94 126 6 179 30 219 96 22 39
27 59 27 114 0 60 -3 70 -29 97 -41 42 -79 51 -233 51 l-131 0 -6 -27z m269
-87 c20 -20 24 -31 18 -58 -9 -48 -20 -66 -53 -83 -30 -15 -160 -22 -160 -7 0
4 7 42 15 85 8 43 15 81 15 83 0 2 32 4 70 4 62 0 74 -3 95 -24z"/>
</g>
</svg>
