<?xml version="1.0" standalone="no"?>
<!DOCTYPE svg PUBLIC "-//W3C//DTD SVG 20010904//EN"
 "http://www.w3.org/TR/2001/REC-SVG-20010904/DTD/svg10.dtd">
<svg version="1.0" xmlns="http://www.w3.org/2000/svg"
 width="1200.000000pt" height="1200.000000pt" viewBox="0 0 1200.000000 1200.000000"
 preserveAspectRatio="xMidYMid meet">

<g transform="translate(0.000000,1200.000000) scale(0.100000,-0.100000)"
fill="#000000" stroke="none">
<path d="M6085 10066 c-124 -31 -250 -126 -307 -232 -61 -114 -58 7 -58 -2023
l0 -1856 -582 582 c-619 616 -616 615 -745 648 -248 65 -513 -92 -578 -340
-30 -115 -17 -231 37 -345 29 -60 111 -145 1042 -1076 938 -937 1016 -1013
1082 -1047 138 -71 294 -74 432 -7 62 30 139 105 1075 1039 554 553 1021 1027
1037 1052 123 189 96 434 -65 595 -150 152 -357 185 -555 91 -59 -28 -118 -84
-642 -606 l-578 -575 0 1834 c0 2001 2 1912 -57 2023 -37 69 -136 168 -201
201 -106 54 -228 69 -337 42z"/>
<path d="M2723 5266 c-121 -30 -248 -126 -305 -232 -60 -111 -58 -74 -58
-1194 0 -671 4 -1041 11 -1070 39 -169 197 -323 367 -359 71 -15 6834 -16
6913 -1 160 30 299 151 361 316 l23 59 3 1015 c2 691 -1 1036 -8 1080 -30 183
-173 337 -355 385 -243 63 -501 -81 -575 -322 -19 -63 -20 -92 -20 -824 l0
-759 -2880 0 -2880 0 0 738 c0 602 -3 749 -15 805 -55 259 -322 426 -582 363z"/>
</g>
</svg>
