<?xml version="1.0" standalone="no"?>
<!DOCTYPE svg PUBLIC "-//W3C//DTD SVG 20010904//EN"
 "http://www.w3.org/TR/2001/REC-SVG-20010904/DTD/svg10.dtd">
<svg version="1.0" xmlns="http://www.w3.org/2000/svg"
 width="626.000000pt" height="626.000000pt" viewBox="0 0 626.000000 626.000000"
 preserveAspectRatio="xMidYMid meet">

<g transform="translate(0.000000,626.000000) scale(0.100000,-0.100000)"
fill="#000000" stroke="none">
<path d="M3084 5196 c-66 -29 -648 -584 -1646 -1573 -387 -384 -458 -458 -458
-481 0 -33 36 -72 66 -72 25 0 -102 -120 1213 1150 834 807 804 780 874 780
52 0 103 -40 347 -276 1822 -1763 1707 -1654 1740 -1654 28 0 60 39 60 74 0
27 -33 64 -275 304 -231 228 -281 282 -303 330 l-27 57 -1 457 c-1 428 -2 459
-19 478 -17 19 -31 20 -250 20 -222 0 -233 -1 -251 -21 -17 -19 -18 -37 -15
-230 1 -123 -1 -209 -7 -209 -9 0 -135 116 -635 584 -255 239 -325 296 -367
295 -8 0 -29 -6 -46 -13z m1438 -566 l23 -18 3 -346 c2 -251 0 -346 -8 -346
-16 0 -249 230 -266 262 -11 21 -14 75 -14 228 0 250 -6 240 139 239 82 0 104
-4 123 -19z"/>
<path d="M3088 4722 c-20 -9 -200 -166 -400 -347 -200 -182 -559 -507 -799
-722 -356 -320 -439 -399 -453 -433 -14 -36 -16 -132 -16 -958 0 -504 -3 -947
-7 -985 l-6 -67 -191 0 c-228 0 -236 -3 -236 -80 0 -88 -223 -80 2150 -80
2372 0 2150 -8 2150 79 0 74 -3 75 -234 81 l-201 5 -5 995 c-5 922 -6 997 -22
1027 -10 17 -100 105 -200 195 -310 277 -779 699 -1101 992 -364 331 -361 330
-429 298z m126 -210 c245 -225 600 -546 1179 -1066 158 -142 294 -271 302
-287 13 -24 15 -160 15 -969 0 -630 -3 -948 -10 -961 -10 -18 -27 -19 -545
-19 l-534 0 -16 30 c-14 27 -16 92 -14 509 1 497 0 509 -41 531 -28 15 -811
15 -839 0 -11 -6 -25 -20 -31 -31 -8 -14 -11 -169 -10 -493 1 -469 -2 -519
-33 -538 -7 -4 -247 -8 -534 -8 l-522 0 -15 22 c-14 20 -16 127 -16 956 0 847
2 937 16 969 11 22 118 125 298 286 378 339 662 595 959 866 136 124 259 231
274 237 35 15 78 2 117 -34z m223 -2384 c26 -28 25 -8 24 -510 l-1 -408 -330
0 -330 0 0 447 c0 445 0 447 22 470 l21 23 287 0 c284 0 287 0 307 -22z"/>
<path d="M2040 3160 l0 -110 100 0 100 0 0 110 0 110 -100 0 -100 0 0 -110z"/>
<path d="M2330 3160 l0 -110 100 0 100 0 0 110 0 110 -100 0 -100 0 0 -110z"/>
<path d="M3730 3160 l0 -110 100 0 100 0 0 110 0 110 -100 0 -100 0 0 -110z"/>
<path d="M4020 3160 l0 -110 100 0 100 0 0 110 0 110 -100 0 -100 0 0 -110z"/>
<path d="M2040 2860 l0 -110 100 0 100 0 0 110 0 110 -100 0 -100 0 0 -110z"/>
<path d="M2330 2860 l0 -110 100 0 100 0 0 110 0 110 -100 0 -100 0 0 -110z"/>
<path d="M3730 2860 l0 -110 100 0 100 0 0 110 0 110 -100 0 -100 0 0 -110z"/>
<path d="M4020 2860 l0 -110 100 0 100 0 0 110 0 110 -100 0 -100 0 0 -110z"/>
</g>
</svg>
