<?xml version="1.0" standalone="no"?>
<!DOCTYPE svg PUBLIC "-//W3C//DTD SVG 20010904//EN"
 "http://www.w3.org/TR/2001/REC-SVG-20010904/DTD/svg10.dtd">
<svg version="1.0" xmlns="http://www.w3.org/2000/svg"
 width="360.000000pt" height="363.000000pt" viewBox="0 0 360.000000 363.000000"
 preserveAspectRatio="xMidYMid meet">

<g transform="translate(0.000000,363.000000) scale(0.100000,-0.100000)"
fill="#000000" stroke="none">
<path d="M1635 3524 c-244 -29 -414 -78 -617 -180 -626 -313 -1008 -986 -949
-1673 15 -174 34 -269 82 -416 227 -694 855 -1166 1584 -1192 687 -24 1317
354 1620 972 108 221 162 431 172 670 13 308 -43 582 -171 847 -229 475 -669
824 -1181 937 -159 35 -402 50 -540 35z m355 -59 c221 -26 402 -82 590 -181
459 -243 777 -678 872 -1192 26 -141 31 -428 9 -557 -19 -118 -56 -253 -97
-356 -20 -52 -34 -101 -31 -115 3 -18 0 -24 -13 -24 -10 0 -28 -21 -45 -52
-80 -148 -222 -327 -353 -444 -263 -235 -580 -377 -932 -420 -150 -18 -238
-17 -390 1 -401 50 -740 219 -1016 506 -220 230 -354 481 -430 804 -27 114
-28 132 -29 360 0 266 7 316 72 520 185 580 696 1027 1294 1134 192 34 314 38
499 16z"/>
<path d="M2010 2235 c0 -9 -4 -14 -9 -11 -14 9 -24 -173 -16 -303 l7 -118 -55
-22 c-30 -12 -64 -29 -76 -37 -33 -23 -6 -42 65 -46 l59 -3 6 -115 c3 -63 11
-135 18 -159 l13 -44 17 29 c10 18 24 83 36 166 l18 137 51 10 c28 6 71 11 96
13 l45 3 6 -120 c6 -131 19 -185 54 -229 l23 -29 6 44 c3 24 8 96 11 159 10
186 11 189 74 212 l54 21 -24 18 c-13 10 -36 19 -51 19 -20 0 -28 5 -28 18 0
52 -23 204 -37 249 -20 65 -58 114 -72 94 -5 -7 -9 -88 -10 -179 -1 -91 -3
-167 -4 -168 -1 -2 -43 -4 -92 -5 l-90 -2 -3 39 c-6 95 -35 260 -53 310 -21
55 -39 78 -39 49z"/>
<path d="M1587 2218 c-13 -13 -35 -57 -49 -98 -15 -41 -53 -147 -84 -235 -31
-88 -57 -161 -59 -163 -1 -1 -30 4 -64 12 l-61 14 0 -26 c0 -17 14 -39 44 -67
l45 -41 -43 -100 c-42 -100 -42 -101 -18 -96 16 3 40 30 79 88 30 46 63 85 72
87 9 2 32 -1 51 -6 32 -9 136 -3 186 9 19 5 24 -2 44 -63 31 -94 83 -201 121
-246 36 -44 48 -43 24 2 -9 18 -14 35 -11 39 2 4 -6 41 -20 82 -30 91 -65 287
-99 555 -14 110 -30 213 -37 228 -20 51 -83 63 -121 25z m79 -401 c14 -76 23
-141 20 -144 -7 -7 -158 16 -176 27 -16 10 -14 16 54 172 31 71 57 136 57 145
2 21 9 -10 45 -200z"/>
<path d="M2832 2223 c-19 -17 -54 -103 -112 -273 -43 -127 -83 -230 -89 -230
-3 1 -28 7 -56 14 -27 8 -53 12 -57 9 -20 -11 -4 -50 37 -88 l45 -42 -26 -64
c-14 -35 -35 -81 -45 -101 -11 -21 -17 -38 -15 -38 27 0 60 30 100 91 65 98
65 98 129 87 30 -6 80 -6 117 -2 36 5 71 9 78 9 7 0 25 -35 41 -80 33 -95 68
-164 111 -223 35 -48 50 -51 26 -4 -8 16 -13 32 -10 35 3 3 -6 43 -21 90 -39
129 -59 244 -111 647 -14 113 -21 138 -40 157 -28 28 -74 30 -102 6z m72 -390
c14 -73 27 -138 28 -145 2 -9 -11 -12 -47 -11 -63 3 -145 22 -145 34 0 4 27
69 60 144 33 75 60 146 61 158 1 28 10 -9 43 -180z"/>
<path d="M730 2206 c-73 -21 -97 -33 -138 -71 -42 -37 -85 -123 -80 -157 3
-19 4 -19 28 5 14 13 33 36 42 50 10 14 44 38 75 54 51 24 69 28 148 28 80 0
97 -4 155 -31 85 -40 129 -78 153 -133 45 -103 8 -270 -83 -375 -44 -49 -141
-97 -212 -103 -56 -6 -70 1 -48 23 32 32 61 411 39 499 -10 39 -45 93 -54 83
-11 -11 -55 -304 -55 -365 0 -89 17 -189 36 -219 15 -22 15 -24 0 -30 -9 -3
-38 -3 -64 0 -43 6 -46 5 -28 -9 11 -8 26 -15 33 -15 7 0 13 -4 13 -10 0 -14
67 -30 125 -30 193 0 348 125 409 329 23 77 21 187 -5 255 -25 68 -91 143
-156 179 -99 53 -234 71 -333 43z"/>
</g>
</svg>
