<?xml version="1.0" standalone="no"?>
<!DOCTYPE svg PUBLIC "-//W3C//DTD SVG 20010904//EN"
 "http://www.w3.org/TR/2001/REC-SVG-20010904/DTD/svg10.dtd">
<svg version="1.0" xmlns="http://www.w3.org/2000/svg"
 width="204.000000pt" height="192.000000pt" viewBox="0 0 204.000000 192.000000"
 preserveAspectRatio="xMidYMid meet">

<g transform="translate(0.000000,192.000000) scale(0.100000,-0.100000)"
fill="#000000" stroke="none">
<path d="M422 1908 c-8 -8 -12 -45 -12 -105 0 -82 -2 -93 -20 -103 -57 -30
-62 -120 -9 -164 68 -58 159 -8 159 86 0 22 -10 40 -35 63 -34 33 -34 34 -37
131 -2 79 -6 99 -18 102 -9 1 -21 -3 -28 -10z m48 -279 c14 -26 -4 -51 -34
-47 -24 4 -33 33 -16 53 17 21 37 19 50 -6z"/>
<path d="M763 1913 c-9 -3 -13 -34 -13 -103 0 -89 -2 -100 -20 -110 -30 -16
-53 -68 -46 -103 24 -121 195 -106 196 17 0 31 -6 45 -35 71 -34 33 -34 34
-37 131 -3 101 -9 113 -45 97z m48 -279 c17 -21 0 -49 -32 -49 -18 0 -25 6
-27 24 -6 38 34 55 59 25z"/>
<path d="M1102 1908 c-8 -8 -12 -45 -12 -105 0 -82 -2 -93 -20 -103 -57 -30
-62 -120 -9 -164 68 -58 159 -8 159 86 0 22 -10 40 -35 63 -34 33 -34 34 -37
131 -2 79 -6 99 -18 102 -9 1 -21 -3 -28 -10z m48 -279 c14 -26 -4 -51 -34
-47 -24 4 -33 33 -16 53 17 21 37 19 50 -6z"/>
<path d="M1443 1913 c-9 -3 -13 -34 -13 -103 0 -89 -2 -100 -20 -110 -25 -13
-50 -61 -50 -94 0 -13 12 -38 26 -55 62 -74 173 -34 174 63 0 31 -6 45 -35 71
-34 33 -34 34 -37 131 -3 101 -9 113 -45 97z m48 -279 c17 -21 0 -49 -32 -49
-18 0 -25 6 -27 24 -6 38 34 55 59 25z"/>
<path d="M180 1769 c-32 -13 -78 -56 -96 -91 -12 -23 -14 -161 -14 -850 l0
-823 527 3 c291 1 534 5 541 7 7 3 12 15 10 27 l-3 23 -505 5 -505 5 0 35 0
35 505 5 505 5 0 25 0 25 -505 5 -505 5 -2 705 c-2 545 0 710 10 729 21 42 62
64 126 69 62 4 83 21 60 48 -13 16 -111 18 -149 3z"/>
<path d="M554 1765 c-13 -33 4 -45 61 -45 59 0 79 16 55 45 -17 21 -108 21
-116 0z"/>
<path d="M894 1765 c-13 -33 4 -45 60 -45 57 0 78 18 55 46 -16 20 -108 19
-115 -1z"/>
<path d="M1234 1765 c-13 -33 4 -45 61 -45 59 0 79 16 55 45 -17 21 -108 21
-116 0z"/>
<path d="M1574 1765 c-12 -31 4 -42 66 -47 52 -4 66 -9 93 -36 l32 -32 5 -473
5 -472 25 0 25 0 2 475 3 475 -23 40 c-32 57 -86 85 -165 85 -47 0 -64 -4 -68
-15z"/>
<path d="M414 1286 c-14 -36 3 -47 63 -44 54 3 58 5 58 28 0 23 -4 25 -58 28
-44 2 -59 0 -63 -12z"/>
<path d="M684 1285 c-4 -8 -1 -22 6 -30 11 -13 65 -15 366 -15 326 0 354 1
362 18 22 41 17 42 -364 42 -316 0 -365 -2 -370 -15z"/>
<path d="M422 1088 c-17 -17 -15 -36 7 -48 47 -25 117 -2 109 36 -2 15 -13 20
-53 22 -30 2 -55 -2 -63 -10z"/>
<path d="M692 1088 c-18 -18 -15 -36 7 -48 12 -6 133 -10 323 -10 249 0 308 3
324 14 15 12 17 18 8 33 -10 17 -35 18 -330 21 -240 2 -323 -1 -332 -10z"/>
<path d="M414 875 c-12 -29 16 -46 70 -43 47 3 51 5 51 28 0 23 -4 25 -58 28
-45 2 -59 0 -63 -13z"/>
<path d="M684 875 c-4 -8 -1 -22 6 -30 11 -13 66 -15 404 -13 l391 3 0 25 0
25 -398 3 c-349 2 -398 0 -403 -13z"/>
<path d="M422 678 c-17 -17 -15 -36 7 -48 47 -25 117 -2 109 36 -2 15 -13 20
-53 22 -30 2 -55 -2 -63 -10z"/>
<path d="M690 675 c-18 -22 -5 -43 32 -50 18 -3 181 -5 361 -3 348 3 360 5
336 50 -9 17 -33 18 -363 18 -301 0 -355 -2 -366 -15z"/>
<path d="M1699 596 c-19 -13 -133 -125 -252 -247 l-217 -224 0 -62 0 -63 30 0
c29 0 30 2 30 45 0 25 4 45 8 45 4 0 28 -20 52 -45 39 -40 49 -45 89 -45 l45
0 -22 22 -22 23 147 147 147 148 28 -27 29 -27 -143 -143 -143 -143 49 0 49 0
104 108 c58 59 140 144 184 188 70 72 79 86 79 118 0 20 -6 49 -14 64 -17 31
-101 115 -133 131 -35 18 -86 13 -124 -13z m137 -78 c81 -75 87 -104 30 -158
l-27 -24 -77 77 -76 77 34 35 c19 19 42 35 52 35 10 0 39 -19 64 -42z m-293
-280 l-147 -148 -28 27 -29 27 148 148 147 148 28 -27 29 -27 -148 -148z"/>
<path d="M414 465 c-12 -29 16 -46 70 -43 47 3 51 5 51 28 0 23 -4 25 -58 28
-45 2 -59 0 -63 -13z"/>
<path d="M684 465 c-4 -8 -1 -22 6 -30 11 -13 51 -15 269 -13 l256 3 0 25 0
25 -263 3 c-228 2 -263 0 -268 -13z"/>
</g>
</svg>
